<?xml version="1.0" encoding="utf-8"?>
<!-- Generator: Adobe Illustrator 19.0.0, SVG Export Plug-In . SVG Version: 6.00 Build 0)  -->
<svg version="1.1" id="Layer_1" xmlns="http://www.w3.org/2000/svg" xmlns:xlink="http://www.w3.org/1999/xlink" x="0px" y="0px"
	 viewBox="0 0 575.3 382.5" style="enable-background:new 0 0 575.3 382.5;" xml:space="preserve">
<style type="text/css">
	.st0{fill:#FFFFFF;}
	.st1{fill:none;stroke:#FFFFFF;stroke-width:8;stroke-miterlimit:10;}
</style>
<g id="XMLID_13_">
	<g id="XMLID_5_">
		<path id="XMLID_4_" class="st0" d="M281.9,49.2l-38.7,38.7c-3.3,3.3-3.3,8.7,0,12c3.3,3.3,8.7,3.3,12,0l24.2-24.2v71.7
			c0,4.7,3.8,8.5,8.5,8.5s8.5-3.8,8.5-8.5V75.7l24.2,24.2c3.3,3.3,8.7,3.3,12,0c1.7-1.7,2.5-3.8,2.5-6c0-2.2-0.8-4.3-2.5-6
			l-38.7-38.7c-1.6-1.6-3.8-2.5-6-2.5C285.7,46.7,283.5,47.6,281.9,49.2z"/>
		<path id="XMLID_3_" class="st1" d="M368.3,28.8v136.8c0,6.6-5.4,12-12,12H219.5c-6.6,0-12-5.4-12-12V28.8c0-6.6,5.4-12,12-12
			h136.8C362.9,16.8,368.3,22.2,368.3,28.8z"/>
	</g>
	<g id="XMLID_6_">
		<path id="XMLID_8_" class="st0" d="M281.9,332.6L243.3,294c-3.3-3.3-3.3-8.7,0-12c3.3-3.3,8.7-3.3,12,0l24.2,24.2v-71.7
			c0-4.7,3.8-8.5,8.5-8.5s8.5,3.8,8.5,8.5v71.7l24.2-24.2c3.3-3.3,8.7-3.3,12,0c1.7,1.7,2.5,3.8,2.5,6c0,2.2-0.8,4.3-2.5,6
			l-38.7,38.7c-1.6,1.6-3.8,2.5-6,2.5C285.7,335.1,283.5,334.2,281.9,332.6z"/>
		<path id="XMLID_7_" class="st1" d="M368.3,352.9V216.1c0-6.6-5.4-12-12-12H219.5c-6.6,0-12,5.4-12,12v136.8c0,6.6,5.4,12,12,12
			h136.8C362.9,364.9,368.3,359.5,368.3,352.9z"/>
	</g>
	<g id="XMLID_1_">
		<path id="XMLID_9_" class="st0" d="M517.2,290.5l-38.7,38.7c-3.3,3.3-8.7,3.3-12,0c-3.3-3.3-3.3-8.7,0-12l24.2-24.2h-71.7
			c-4.7,0-8.5-3.8-8.5-8.5s3.8-8.5,8.5-8.5h71.7l-24.2-24.2c-3.3-3.3-3.3-8.7,0-12c1.7-1.7,3.8-2.5,6-2.5c2.2,0,4.3,0.8,6,2.5
			l38.7,38.7c1.6,1.6,2.5,3.8,2.5,6C519.6,286.8,518.8,289,517.2,290.5z"/>
		<path id="XMLID_2_" class="st1" d="M537.5,204.1H400.7c-6.6,0-12,5.4-12,12v136.8c0,6.6,5.4,12,12,12h136.8c6.6,0,12-5.4,12-12
			V216.1C549.5,209.5,544.1,204.1,537.5,204.1z"/>
	</g>
	<g id="XMLID_10_">
		<path id="XMLID_12_" class="st0" d="M57,278.5l38.7-38.7c3.3-3.3,8.7-3.3,12,0c3.3,3.3,3.3,8.7,0,12L83.5,276h71.7
			c4.7,0,8.5,3.8,8.5,8.5c0,4.7-3.8,8.5-8.5,8.5H83.5l24.2,24.2c3.3,3.3,3.3,8.7,0,12c-1.7,1.7-3.8,2.5-6,2.5c-2.2,0-4.3-0.8-6-2.5
			L57,290.5c-1.6-1.6-2.5-3.8-2.5-6C54.5,282.3,55.4,280.1,57,278.5z"/>
		<path id="XMLID_11_" class="st1" d="M36.6,364.9h136.8c6.6,0,12-5.4,12-12V216.1c0-6.6-5.4-12-12-12H36.6c-6.6,0-12,5.4-12,12
			v136.8C24.6,359.5,30,364.9,36.6,364.9z"/>
	</g>
</g>
</svg>
